<?xml version="1.0" standalone="no"?>
<!DOCTYPE svg PUBLIC "-//W3C//DTD SVG 20010904//EN"
 "http://www.w3.org/TR/2001/REC-SVG-20010904/DTD/svg10.dtd">
<svg version="1.0" xmlns="http://www.w3.org/2000/svg"
 width="512.000000pt" height="512.000000pt" viewBox="0 0 512.000000 512.000000"
 preserveAspectRatio="xMidYMid meet">

<g transform="translate(0.000000,512.000000) scale(0.100000,-0.100000)"
fill="#000000" stroke="none">
<path d="M39 3988 c-38 -142 -39 -178 -39 -1426 0 -818 4 -1237 11 -1285 99
-662 604 -1167 1266 -1266 100 -15 2466 -15 2566 0 662 99 1167 604 1266 1266
7 48 11 467 11 1285 0 1248 -1 1284 -39 1426 l-12 42 -203 0 -204 0 24 -76
c45 -146 45 -167 42 -1434 l-3 -1205 -28 -100 c-33 -121 -117 -297 -185 -385
-62 -82 -189 -203 -265 -253 -89 -59 -236 -125 -344 -155 l-98 -27 -1245 0
-1245 0 -98 27 c-108 30 -255 96 -344 155 -76 50 -203 171 -265 253 -68 88
-152 264 -185 385 l-28 100 -3 1205 c-3 1267 -3 1288 42 1434 l24 76 -204 0
-203 0 -12 -42z"/>
<path d="M1060 3245 c-6 -8 -9 -20 -5 -27 4 -7 -1 -4 -10 7 -13 15 -19 16 -22
7 -4 -10 -9 -8 -20 5 -13 17 -14 17 -8 -4 4 -13 2 -23 -3 -23 -5 0 -9 -12 -10
-27 0 -16 -10 -138 -21 -273 -29 -348 -67 -947 -91 -1425 -11 -225 -21 -431
-22 -458 l-3 -47 221 0 221 0 7 208 c17 508 55 1261 87 1714 l21 296 -21 21
c-25 25 -50 29 -30 4 13 -15 12 -15 -8 -3 -12 8 -20 18 -17 22 3 4 -2 5 -10 2
-8 -3 -12 -13 -9 -22 4 -14 3 -15 -5 -3 -7 10 -29 15 -61 16 -39 1 -48 -2 -40
-11 9 -10 4 -11 -23 -4 -18 6 -34 10 -36 10 -2 0 0 6 4 13 5 8 2 8 -9 -2 -12
-9 -17 -10 -17 -2 0 8 -4 8 -14 -1 -11 -11 -11 -14 1 -23 12 -9 11 -11 -5 -11
-10 0 -19 6 -20 13 -1 7 -3 20 -4 28 -2 18 -3 19 -18 0z"/>
<path d="M1387 3229 c7 -7 15 -10 18 -7 3 3 -2 9 -12 12 -14 6 -15 5 -6 -5z"/>
<path d="M1663 3225 c0 -8 4 -12 9 -9 4 3 8 0 8 -6 0 -6 -8 -10 -17 -8 -10 2
-17 11 -15 19 2 12 0 12 -10 -1 -15 -17 -58 -22 -52 -5 3 6 -5 11 -16 11 -11
0 -20 -1 -20 -3 0 -12 25 -53 33 -53 6 0 8 -3 4 -6 -3 -4 18 -55 48 -115 139
-276 649 -1392 734 -1606 l13 -33 182 0 181 0 159 363 c175 396 292 653 471
1027 64 135 122 259 129 275 6 17 17 36 24 43 7 8 10 18 7 23 -4 5 -1 9 5 9 6
0 8 5 5 11 -4 6 -10 8 -13 5 -3 -3 -12 0 -20 7 -13 9 -14 9 -8 0 4 -7 0 -23
-8 -35 -9 -12 -16 -18 -16 -12 0 5 6 16 13 23 10 10 6 12 -18 9 -16 -1 -35
-10 -41 -18 -9 -11 -11 -9 -9 14 2 17 -1 26 -8 23 -7 -3 -10 -11 -9 -18 2 -8
0 -11 -4 -7 -4 4 -14 2 -23 -5 -14 -11 -14 -10 -2 6 16 20 16 20 -27 8 -23 -7
-30 -7 -26 1 5 7 1 9 -9 5 -10 -4 -17 -1 -17 6 0 8 -3 7 -9 -2 -8 -12 -12 -12
-24 -2 -10 8 -17 9 -22 1 -3 -5 -11 -10 -16 -10 -6 0 -8 4 -4 9 3 5 0 13 -6
17 -7 4 -9 3 -6 -3 4 -6 0 -14 -9 -17 -8 -3 -12 -2 -9 4 10 17 -5 11 -28 -10
-12 -12 -23 -16 -25 -10 -2 5 -9 7 -14 4 -7 -4 -8 -2 -4 5 4 6 11 9 16 6 5 -3
8 4 7 15 -1 22 -17 28 -17 6 0 -8 -5 -16 -11 -18 -6 -2 -12 -15 -12 -30 -1
-14 -5 -24 -8 -22 -8 5 -115 -225 -334 -717 -95 -212 -179 -398 -187 -413
l-14 -26 -23 46 c-12 26 -94 208 -181 403 -87 196 -195 435 -240 531 -45 96
-93 199 -106 228 -14 30 -29 50 -35 47 -6 -5 -6 -12 3 -23 12 -15 11 -16 -4
-4 -9 8 -22 11 -28 7 -5 -3 -10 -2 -10 3 0 6 -9 8 -19 5 -10 -3 -31 3 -47 13
-21 14 -29 15 -32 6 -3 -10 -7 -10 -18 -1 -11 9 -14 8 -14 -7 0 -11 -4 -15 -8
-9 -4 6 -20 11 -37 12 -28 1 -29 0 -10 -13 10 -8 14 -14 8 -14 -7 0 -18 7 -26
15 -8 8 -17 11 -21 8 -3 -4 -6 0 -6 7 0 7 -3 10 -6 7 -4 -3 -14 -2 -24 3 -12
6 -17 5 -17 -5z m21 -43 c2 -4 -5 -9 -17 -9 -17 -2 -19 0 -7 7 18 12 18 12 24
2z"/>
<path d="M3932 3173 c-6 -2 -10 -9 -7 -14 4 -5 2 -16 -3 -25 -8 -15 -10 -15
-15 0 -5 11 -3 15 5 10 7 -5 8 -3 3 5 -5 9 -10 10 -18 2 -17 -17 -27 -13 -21
7 5 14 4 14 -4 3 -7 -10 -14 -12 -24 -5 -22 17 -43 10 -42 -13 0 -13 -4 -19
-12 -16 -7 2 -10 11 -8 18 3 7 1 16 -5 20 -6 3 -11 1 -11 -6 0 -7 -8 -9 -21
-6 -20 5 -21 3 -15 -51 25 -238 106 -1801 106 -2059 l0 -63 222 0 221 0 -7
158 c-13 302 -57 1001 -92 1472 -20 261 -36 486 -37 500 -2 22 -7 25 -40 25
-28 0 -43 6 -56 24 -11 14 -21 20 -25 13 -3 -6 -2 -13 4 -17 5 -3 10 -14 10
-23 0 -15 -2 -15 -10 -2 -11 18 -30 20 -49 6 -11 -8 -13 -8 -7 2 6 9 3 12 -9
10 -10 -2 -20 3 -23 11 -3 9 0 11 8 6 9 -5 11 -4 6 3 -4 7 -8 12 -9 11 -1 0
-8 -3 -15 -6z m203 -63 c8 -13 -5 -13 -25 0 -13 8 -13 10 2 10 9 0 20 -4 23
-10z"/>
<path d="M4121 3161 c-8 -6 -9 -11 -3 -15 6 -3 14 -1 17 5 9 14 2 20 -14 10z"/>
</g>
</svg>
